<svg id="Layer_1" data-name="Layer 1" xmlns="http://www.w3.org/2000/svg" viewBox="0 0 309 156"><defs><style>.cls-1{opacity:0.75;}.cls-2{fill:#fa7268;}.cls-3{font-size:20px;font-family:Impact, Impact;}.cls-4{letter-spacing:0.24em;}</style></defs><title>legend</title><g class="cls-1"><path class="cls-2" d="M640,483.5A76.5,76.5,0,1,1,716.5,407,76.59,76.59,0,0,1,640,483.5Z" transform="translate(-563 -330)"/><path d="M640,331a76,76,0,1,1-76,76,76.09,76.09,0,0,1,76-76m0-1a77,77,0,1,0,77,77,77,77,0,0,0-77-77Z" transform="translate(-563 -330)"/></g><g class="cls-1"><path class="cls-2" d="M640,483.5A35.5,35.5,0,1,1,675.5,448,35.54,35.54,0,0,1,640,483.5Z" transform="translate(-563 -330)"/><path d="M640,413a35,35,0,1,1-35,35,35,35,0,0,1,35-35m0-1a36,36,0,1,0,36,36,36,36,0,0,0-36-36Z" transform="translate(-563 -330)"/></g><g class="cls-1"><path class="cls-2" d="M640,483.5A15.5,15.5,0,1,1,655.5,468,15.52,15.52,0,0,1,640,483.5Z" transform="translate(-563 -330)"/><path d="M640,453a15,15,0,1,1-15,15,15,15,0,0,1,15-15m0-1a16,16,0,1,0,16,16,16,16,0,0,0-16-16Z" transform="translate(-563 -330)"/></g><text class="cls-3" transform="translate(177.42 49.19)">250, 000 books</text><text class="cls-3" transform="translate(177.42 101.19)">25, 000 books</text><text class="cls-3" transform="translate(177.42 143.19)">5,000 books<tspan class="cls-4" x="99.6" y="0">	</tspan></text></svg>